<mxfile host="65bd71144e">
    <diagram id="HbN7EO_LglPKC-ExW3K2" name="Page-1">
        <mxGraphModel dx="1085" dy="1207" grid="1" gridSize="10" guides="1" tooltips="1" connect="1" arrows="1" fold="1" page="1" pageScale="1" pageWidth="300" pageHeight="300" math="0" shadow="0">
            <root>
                <mxCell id="0"/>
                <mxCell id="1" parent="0"/>
                <mxCell id="2" value="" style="html=1;shadow=0;dashed=0;align=center;verticalAlign=middle;shape=mxgraph.arrows2.jumpInArrow;dy=15;dx=38;arrowHead=61.33;rotation=25;fillColor=none;strokeColor=#B3B3B3;strokeWidth=4;" vertex="1" parent="1">
                    <mxGeometry x="90.47" y="54" width="130" height="120" as="geometry"/>
                </mxCell>
                <mxCell id="3" value="" style="html=1;shadow=0;dashed=0;align=center;verticalAlign=middle;shape=mxgraph.arrows2.jumpInArrow;dy=15;dx=38;arrowHead=61.33;rotation=-160;fillColor=none;strokeColor=#B3B3B3;strokeWidth=4;" vertex="1" parent="1">
                    <mxGeometry x="80" y="126.11000000000001" width="130" height="120" as="geometry"/>
                </mxCell>
            </root>
        </mxGraphModel>
    </diagram>
</mxfile>